<?xml version="1.0" encoding="UTF-8" standalone="no"?>
<!-- Created with Inkscape (http://www.inkscape.org/) -->

<svg
   width="1920"
   height="1200"
   viewBox="0 0 1920 1200"
   version="1.1"
   id="SVGRoot"
   sodipodi:docname="background.svg"
   inkscape:version="1.2.1 (9c6d41e410, 2022-07-14)"
   xmlns:inkscape="http://www.inkscape.org/namespaces/inkscape"
   xmlns:sodipodi="http://sodipodi.sourceforge.net/DTD/sodipodi-0.dtd"
   xmlns="http://www.w3.org/2000/svg"
   xmlns:svg="http://www.w3.org/2000/svg">
  <sodipodi:namedview
     id="namedview249"
     pagecolor="#ffffff"
     bordercolor="#000000"
     borderopacity="0.25"
     inkscape:showpageshadow="2"
     inkscape:pageopacity="0.0"
     inkscape:pagecheckerboard="0"
     inkscape:deskcolor="#d1d1d1"
     inkscape:document-units="px"
     showgrid="false"
     inkscape:zoom="0.55244701"
     inkscape:cx="844.42487"
     inkscape:cy="499.59542"
     inkscape:window-width="1920"
     inkscape:window-height="1057"
     inkscape:window-x="1912"
     inkscape:window-y="-8"
     inkscape:window-maximized="1"
     inkscape:current-layer="layer1" />
  <defs
     id="defs244">
    <inkscape:path-effect
       effect="spiro"
       id="path-effect25818"
       is_visible="true"
       lpeversion="1" />
  </defs>
  <g
     inkscape:label="Layer 1"
     inkscape:groupmode="layer"
     id="layer1">
    <path
       style="fill:#ff0000"
       d="M -1.8101283,3.6202567 C 367.45605,532.17773 367.45605,532.17773 367.45605,532.17773"
       id="path259" />
    <path
       style="fill:#c3b1e1;fill-opacity:1;stroke-width:1.16395"
       d="m -27.151926,-167.76282 1969.372026,-2.38924 1.8578,1426.38116 -1967.514029,-2.3892 z"
       id="path3468" />
    <path
       style="opacity:1;fill:#c9c0f0;fill-opacity:1;stroke:#ffffff;stroke-width:0;stroke-dasharray:none;stroke-opacity:1"
       d="M 0,3.6202567 C 262.90876,135.37835 553.4226,211.73134 847.14007,226.26604 1214.8384,244.4617 1586.9269,164.99871 1915.1158,-1.8101283"
       id="path25816"
       inkscape:path-effect="#path-effect25818"
       inkscape:original-d="M 0,3.6202567 C 282.38102,76.629767 564.76104,152.05178 847.14007,226.26604 1129.5191,300.48031 1559.1249,74.216262 1915.1158,-1.8101283" />
    <path
       style="opacity:0.1;fill:#855fc6;fill-opacity:1;stroke-width:1.06625"
       d="M 1377.5077,0.49559442 C 957.5579,547.90379 1277.9506,1229.0771 1277.9506,1229.0771 l 638.9753,-4.1158 3.6203,-1228.5815567 z"
       id="path7288" />
    <path
       sodipodi:type="star"
       style="opacity:1;fill:#af8ee5;fill-opacity:1"
       id="path9659"
       inkscape:flatsided="true"
       sodipodi:sides="5"
       sodipodi:cx="9.050642"
       sodipodi:cy="953.93762"
       sodipodi:r1="167.51268"
       sodipodi:r2="135.52061"
       sodipodi:arg1="-1.4625257"
       sodipodi:arg2="-0.83420721"
       inkscape:rounded="0.1"
       inkscape:randomized="0"
       d="m 27.151931,787.40582 c 19.576988,2.12793 141.847639,113.0096 145.873469,132.28599 4.02584,19.27639 -63.64519,169.82699 -80.734071,179.61259 -17.088884,9.7855 -181.182528,-8.0508 -195.769879,-21.2794 -14.58734,-13.2286 -48.33177,-174.80263 -40.25836,-192.76388 8.07341,-17.96126 151.3118534,-99.98323 170.888841,-97.8553 z"
       inkscape:transform-center-x="-5.5936042"
       inkscape:transform-center-y="-10.582539"
       transform="translate(38.012695,25.341806)" />
    <path
       sodipodi:type="star"
       style="opacity:1;fill:#d2c0f0;fill-opacity:1"
       id="path11373"
       inkscape:flatsided="true"
       sodipodi:sides="5"
       sodipodi:cx="-3.6202567"
       sodipodi:cy="961.17816"
       sodipodi:r1="108.90897"
       sodipodi:r2="88.109207"
       sodipodi:arg1="-0.26916749"
       sodipodi:arg2="0.35915104"
       inkscape:rounded="0.1"
       inkscape:randomized="0"
       d="m 101.36719,932.21611 c 3.40469,12.34201 -34.314146,112.80929 -44.999991,119.86129 -10.685845,7.0519 -117.891707,2.2253 -127.900616,-5.7584 -10.008909,-7.9836 -38.546933,-111.43399 -34.046933,-123.42012 4.5,-11.98613 94.068387,-71.09532 106.8584484,-70.51948 12.7900616,0.57584 96.6843976,67.49469 100.0890916,79.83671 z"
       inkscape:transform-center-x="-2.9933288"
       inkscape:transform-center-y="-6.2188205"
       transform="rotate(3.0478323,-285.36653,1887.8726)" />
    <path
       sodipodi:type="star"
       style="opacity:1;fill:#fa9e9e;fill-opacity:0;stroke:#947abe;stroke-width:7;stroke-dasharray:none;stroke-opacity:1"
       id="path30392"
       inkscape:flatsided="true"
       sodipodi:sides="3"
       sodipodi:cx="1779.3562"
       sodipodi:cy="-57.924107"
       sodipodi:r1="217.88562"
       sodipodi:r2="108.94281"
       sodipodi:arg1="0.98048958"
       sodipodi:arg2="2.0276871"
       inkscape:rounded="0.1"
       inkscape:randomized="0"
       d="m 1900.6348,123.08873 c -31.3523,21.00606 -336.164,-128.8339469 -338.6796,-166.488906 -2.5156,-37.65496 279.6555,-226.709584 313.5234,-210.060694 33.868,16.64889 56.5085,355.54353 25.1562,376.5496 z"
       inkscape:transform-center-x="45.511978"
       inkscape:transform-center-y="-7.1384545"
       transform="translate(63.354492,108.6077)" />
    <path
       sodipodi:type="star"
       style="opacity:1;fill:#af8ee5;fill-opacity:1"
       id="path22000"
       inkscape:flatsided="true"
       sodipodi:sides="3"
       sodipodi:cx="1772.1157"
       sodipodi:cy="14.481027"
       sodipodi:r1="158.48705"
       sodipodi:r2="79.243523"
       sodipodi:arg1="-1.3285877"
       sodipodi:arg2="-0.28139019"
       inkscape:rounded="0.1"
       inkscape:randomized="0"
       d="m 1810.1284,-139.37988 c 26.6495,6.58399 95.2551,243.92418 76.2284,263.71132 -19.0266,19.78714 -258.872,-39.468793 -266.4949,-65.839925 -7.6228,-26.371132 163.617,-204.455385 190.2665,-197.871395 z"
       inkscape:transform-center-x="1.8279845"
       inkscape:transform-center-y="-33.956431"
       transform="matrix(1.2001684,-0.24452213,0.2710668,1.0826399,-237.9129,516.5154)" />
    <path
       sodipodi:type="star"
       style="opacity:1;fill:#af8ee5;fill-opacity:1;stroke:#d2c0f0;stroke-width:2.4;stroke-dasharray:none;stroke-opacity:1"
       id="path24980"
       inkscape:flatsided="true"
       sodipodi:sides="3"
       sodipodi:cx="1643.5966"
       sodipodi:cy="85.076035"
       sodipodi:r1="90.379623"
       sodipodi:r2="45.189812"
       sodipodi:arg1="0.99945885"
       sodipodi:arg2="2.0466564"
       inkscape:rounded="0.1"
       inkscape:randomized="0"
       d="m 1692.47,161.10143 c -13.168,8.46513 -138.4031,-56.07605 -139.1501,-71.712428 -0.747,-15.636376 117.7648,-91.8225713 131.6798,-84.6513286 13.9151,7.1712426 20.6383,147.8986266 7.4703,156.3637566 z"
       inkscape:transform-center-x="0.53185556"
       inkscape:transform-center-y="-20.005946"
       transform="rotate(-26.578939,1783.8227,-440.09715)" />
  </g>
</svg>
