<svg width="228" height="272" viewBox="0 0 228 272" fill="none" xmlns="http://www.w3.org/2000/svg">
<circle cx="45" cy="68" r="14.5" fill="#FFC658" stroke="white"/>
<circle cx="45" cy="136" r="14.5" fill="#83A6ED" stroke="white"/>
<circle cx="45" cy="204" r="14.5" fill="#8DD1E1" stroke="white"/>
<path d="M85.9148 62.8182H87.1477V69.5597C87.1477 70.2557 86.9837 70.8771 86.6555 71.424C86.3307 71.9676 85.8717 72.3968 85.2784 72.7116C84.6851 73.0232 83.9891 73.179 83.1903 73.179C82.3916 73.179 81.6955 73.0232 81.1023 72.7116C80.509 72.3968 80.0483 71.9676 79.7202 71.424C79.3954 70.8771 79.233 70.2557 79.233 69.5597V62.8182H80.4659V69.4602C80.4659 69.9574 80.5753 70.3999 80.794 70.7876C81.0128 71.1721 81.3243 71.4754 81.7287 71.6974C82.1364 71.9162 82.6236 72.0256 83.1903 72.0256C83.7571 72.0256 84.2443 71.9162 84.652 71.6974C85.0597 71.4754 85.3712 71.1721 85.5866 70.7876C85.8054 70.3999 85.9148 69.9574 85.9148 69.4602V62.8182ZM90.6241 68.4062V73H89.4508V65.3636H90.5843V66.5568H90.6838C90.8627 66.169 91.1345 65.8575 91.4991 65.6222C91.8637 65.3835 92.3343 65.2642 92.911 65.2642C93.4281 65.2642 93.8805 65.3703 94.2683 65.5824C94.6561 65.7912 94.9577 66.1094 95.1731 66.5369C95.3886 66.9612 95.4963 67.4981 95.4963 68.1477V73H94.323V68.2273C94.323 67.6274 94.1672 67.16 93.8556 66.8253C93.5441 66.4872 93.1165 66.3182 92.573 66.3182C92.1984 66.3182 91.8637 66.3994 91.5687 66.5618C91.277 66.7242 91.0467 66.9612 90.8777 67.2727C90.7086 67.5843 90.6241 67.9621 90.6241 68.4062ZM97.6403 73V65.3636H98.8136V73H97.6403ZM98.2369 64.0909C98.0082 64.0909 97.811 64.013 97.6452 63.8572C97.4828 63.7015 97.4016 63.5142 97.4016 63.2955C97.4016 63.0767 97.4828 62.8894 97.6452 62.7337C97.811 62.5779 98.0082 62.5 98.2369 62.5C98.4656 62.5 98.6611 62.5779 98.8235 62.7337C98.9892 62.8894 99.0721 63.0767 99.0721 63.2955C99.0721 63.5142 98.9892 63.7015 98.8235 63.8572C98.6611 64.013 98.4656 64.0909 98.2369 64.0909ZM107.207 65.3636L104.383 73H103.19L100.366 65.3636H101.639L103.747 71.4489H103.826L105.934 65.3636H107.207ZM111.684 73.1591C110.948 73.1591 110.313 72.9967 109.78 72.6719C109.249 72.3438 108.84 71.8864 108.552 71.2997C108.267 70.7098 108.124 70.0237 108.124 69.2415C108.124 68.4593 108.267 67.7699 108.552 67.1733C108.84 66.5734 109.241 66.1061 109.755 65.7713C110.272 65.4332 110.875 65.2642 111.564 65.2642C111.962 65.2642 112.355 65.3305 112.743 65.4631C113.131 65.5956 113.483 65.8111 113.802 66.1094C114.12 66.4044 114.373 66.7955 114.562 67.2827C114.751 67.7699 114.846 68.3698 114.846 69.0824V69.5795H108.959V68.5653H113.653C113.653 68.1345 113.566 67.75 113.394 67.4119C113.225 67.0739 112.983 66.8071 112.668 66.6115C112.357 66.416 111.989 66.3182 111.564 66.3182C111.097 66.3182 110.693 66.4342 110.351 66.6662C110.013 66.8949 109.753 67.1932 109.571 67.5611C109.389 67.929 109.297 68.3234 109.297 68.7443V69.4205C109.297 69.9972 109.397 70.486 109.596 70.8871C109.798 71.2848 110.078 71.5881 110.436 71.7969C110.794 72.0024 111.21 72.1051 111.684 72.1051C111.992 72.1051 112.27 72.062 112.519 71.9759C112.771 71.8864 112.988 71.7538 113.17 71.5781C113.353 71.3991 113.493 71.1771 113.593 70.9119L114.726 71.2301C114.607 71.6146 114.407 71.9527 114.125 72.2443C113.843 72.5327 113.495 72.758 113.081 72.9205C112.666 73.0795 112.201 73.1591 111.684 73.1591ZM116.631 73V65.3636H117.764V66.517H117.844C117.983 66.1392 118.235 65.8326 118.599 65.5973C118.964 65.362 119.375 65.2443 119.832 65.2443C119.918 65.2443 120.026 65.246 120.155 65.2493C120.285 65.2526 120.382 65.2576 120.449 65.2642V66.4574C120.409 66.4474 120.318 66.4325 120.175 66.4126C120.036 66.3894 119.889 66.3778 119.733 66.3778C119.362 66.3778 119.03 66.4557 118.738 66.6115C118.45 66.764 118.221 66.9761 118.052 67.2479C117.887 67.5163 117.804 67.8229 117.804 68.1676V73H116.631ZM127.249 67.0739L126.195 67.3722C126.128 67.1965 126.031 67.0258 125.901 66.8601C125.775 66.6911 125.603 66.5518 125.384 66.4425C125.165 66.3331 124.885 66.2784 124.544 66.2784C124.077 66.2784 123.687 66.3861 123.376 66.6016C123.067 66.8137 122.913 67.0838 122.913 67.4119C122.913 67.7036 123.019 67.9339 123.232 68.103C123.444 68.272 123.775 68.4129 124.226 68.5256L125.359 68.804C126.042 68.9697 126.551 69.2232 126.886 69.5646C127.22 69.9027 127.388 70.3385 127.388 70.8722C127.388 71.3097 127.262 71.7008 127.01 72.0455C126.761 72.3902 126.413 72.6619 125.966 72.8608C125.518 73.0597 124.998 73.1591 124.405 73.1591C123.626 73.1591 122.981 72.9901 122.471 72.652C121.96 72.3139 121.637 71.8201 121.501 71.1705L122.615 70.892C122.721 71.303 122.922 71.6113 123.217 71.8168C123.515 72.0223 123.904 72.125 124.385 72.125C124.932 72.125 125.366 72.009 125.688 71.777C126.012 71.5417 126.175 71.2599 126.175 70.9318C126.175 70.6667 126.082 70.4446 125.896 70.2656C125.711 70.0833 125.426 69.9474 125.041 69.858L123.768 69.5597C123.069 69.3939 122.555 69.1371 122.227 68.7891C121.902 68.4377 121.74 67.9986 121.74 67.4716C121.74 67.0407 121.861 66.6596 122.103 66.3281C122.348 65.9967 122.681 65.7365 123.102 65.5476C123.527 65.3587 124.007 65.2642 124.544 65.2642C125.3 65.2642 125.893 65.4299 126.324 65.7614C126.758 66.0928 127.066 66.5303 127.249 67.0739ZM129.154 73V65.3636H130.327V73H129.154ZM129.751 64.0909C129.522 64.0909 129.325 64.013 129.159 63.8572C128.997 63.7015 128.915 63.5142 128.915 63.2955C128.915 63.0767 128.997 62.8894 129.159 62.7337C129.325 62.5779 129.522 62.5 129.751 62.5C129.979 62.5 130.175 62.5779 130.337 62.7337C130.503 62.8894 130.586 63.0767 130.586 63.2955C130.586 63.5142 130.503 63.7015 130.337 63.8572C130.175 64.013 129.979 64.0909 129.751 64.0909ZM135.797 65.3636V66.358H131.84V65.3636H135.797ZM132.993 63.5341H134.167V70.8125C134.167 71.1439 134.215 71.3925 134.311 71.5582C134.41 71.7206 134.536 71.83 134.689 71.8864C134.844 71.9394 135.008 71.9659 135.181 71.9659C135.31 71.9659 135.416 71.9593 135.499 71.946C135.582 71.9295 135.648 71.9162 135.698 71.9062L135.936 72.9602C135.857 72.9901 135.746 73.0199 135.603 73.0497C135.461 73.0829 135.28 73.0994 135.061 73.0994C134.73 73.0994 134.405 73.0282 134.087 72.8857C133.772 72.7431 133.51 72.526 133.301 72.2344C133.096 71.9427 132.993 71.5748 132.993 71.1307V63.5341ZM138.318 75.8636C138.119 75.8636 137.942 75.8471 137.786 75.8139C137.63 75.7841 137.522 75.7543 137.463 75.7244L137.761 74.6903C138.046 74.7633 138.298 74.7898 138.517 74.7699C138.735 74.75 138.929 74.6522 139.098 74.4766C139.271 74.3042 139.428 74.0241 139.571 73.6364L139.789 73.0398L136.966 65.3636H138.238L140.346 71.4489H140.426L142.534 65.3636H143.806L140.565 74.1136C140.419 74.508 140.239 74.8345 140.023 75.093C139.808 75.3549 139.557 75.5488 139.272 75.6747C138.991 75.8007 138.672 75.8636 138.318 75.8636Z" fill="black"/>
<path d="M86.3068 198.818V209H85.1136L79.5653 201.006H79.4659V209H78.233V198.818H79.4261L84.9943 206.832H85.0938V198.818H86.3068ZM90.862 209.179C90.3781 209.179 89.939 209.088 89.5446 208.906C89.1502 208.72 88.8369 208.453 88.6049 208.105C88.3729 207.754 88.2569 207.33 88.2569 206.832C88.2569 206.395 88.3431 206.04 88.5154 205.768C88.6878 205.493 88.9181 205.278 89.2065 205.122C89.4949 204.966 89.813 204.85 90.161 204.774C90.5124 204.695 90.8654 204.632 91.22 204.585C91.684 204.526 92.0602 204.481 92.3485 204.451C92.6402 204.418 92.8523 204.363 92.9849 204.287C93.1208 204.211 93.1887 204.078 93.1887 203.889V203.849C93.1887 203.359 93.0545 202.978 92.786 202.706C92.5209 202.434 92.1182 202.298 91.5779 202.298C91.0178 202.298 90.5787 202.421 90.2605 202.666C89.9423 202.911 89.7186 203.173 89.5893 203.452L88.4757 203.054C88.6745 202.59 88.9397 202.229 89.2711 201.97C89.6059 201.708 89.9705 201.526 90.3649 201.423C90.7626 201.317 91.1537 201.264 91.5382 201.264C91.7834 201.264 92.0652 201.294 92.3833 201.354C92.7048 201.41 93.0147 201.528 93.313 201.707C93.6146 201.886 93.8649 202.156 94.0637 202.517C94.2626 202.878 94.362 203.362 94.362 203.969V209H93.1887V207.966H93.1291C93.0495 208.132 92.917 208.309 92.7314 208.498C92.5458 208.687 92.2988 208.848 91.9906 208.98C91.6824 209.113 91.3062 209.179 90.862 209.179ZM91.041 208.125C91.505 208.125 91.8961 208.034 92.2143 207.852C92.5358 207.669 92.7778 207.434 92.9402 207.146C93.1059 206.857 93.1887 206.554 93.1887 206.236V205.162C93.139 205.222 93.0297 205.276 92.8606 205.326C92.6949 205.372 92.5027 205.414 92.2839 205.45C92.0685 205.483 91.858 205.513 91.6525 205.54C91.4503 205.563 91.2863 205.583 91.1603 205.599C90.8554 205.639 90.5704 205.704 90.3052 205.793C90.0434 205.879 89.8313 206.01 89.6689 206.186C89.5098 206.358 89.4302 206.594 89.4302 206.892C89.4302 207.3 89.581 207.608 89.8826 207.817C90.1876 208.022 90.5737 208.125 91.041 208.125ZM99.8246 201.364V202.358H95.8672V201.364H99.8246ZM97.0206 199.534H98.1939V206.812C98.1939 207.144 98.242 207.393 98.3381 207.558C98.4375 207.721 98.5634 207.83 98.7159 207.886C98.8717 207.939 99.0357 207.966 99.2081 207.966C99.3374 207.966 99.4434 207.959 99.5263 207.946C99.6091 207.929 99.6754 207.916 99.7251 207.906L99.9638 208.96C99.8842 208.99 99.7732 209.02 99.6307 209.05C99.4882 209.083 99.3075 209.099 99.0888 209.099C98.7573 209.099 98.4325 209.028 98.1143 208.886C97.7995 208.743 97.5376 208.526 97.3288 208.234C97.1233 207.943 97.0206 207.575 97.0206 207.131V199.534ZM101.589 209V201.364H102.763V209H101.589ZM102.186 200.091C101.957 200.091 101.76 200.013 101.594 199.857C101.432 199.701 101.351 199.514 101.351 199.295C101.351 199.077 101.432 198.889 101.594 198.734C101.76 198.578 101.957 198.5 102.186 198.5C102.415 198.5 102.61 198.578 102.773 198.734C102.938 198.889 103.021 199.077 103.021 199.295C103.021 199.514 102.938 199.701 102.773 199.857C102.61 200.013 102.415 200.091 102.186 200.091ZM108.014 209.159C107.325 209.159 106.72 208.995 106.199 208.667C105.682 208.339 105.278 207.88 104.986 207.29C104.698 206.7 104.554 206.01 104.554 205.222C104.554 204.426 104.698 203.732 104.986 203.138C105.278 202.545 105.682 202.085 106.199 201.756C106.72 201.428 107.325 201.264 108.014 201.264C108.703 201.264 109.307 201.428 109.824 201.756C110.344 202.085 110.748 202.545 111.037 203.138C111.328 203.732 111.474 204.426 111.474 205.222C111.474 206.01 111.328 206.7 111.037 207.29C110.748 207.88 110.344 208.339 109.824 208.667C109.307 208.995 108.703 209.159 108.014 209.159ZM108.014 208.105C108.538 208.105 108.969 207.971 109.307 207.702C109.645 207.434 109.895 207.081 110.057 206.643C110.22 206.206 110.301 205.732 110.301 205.222C110.301 204.711 110.22 204.236 110.057 203.795C109.895 203.354 109.645 202.998 109.307 202.726C108.969 202.454 108.538 202.318 108.014 202.318C107.49 202.318 107.059 202.454 106.721 202.726C106.383 202.998 106.133 203.354 105.971 203.795C105.808 204.236 105.727 204.711 105.727 205.222C105.727 205.732 105.808 206.206 105.971 206.643C106.133 207.081 106.383 207.434 106.721 207.702C107.059 207.971 107.49 208.105 108.014 208.105ZM114.439 204.406V209H113.265V201.364H114.399V202.557H114.498C114.677 202.169 114.949 201.857 115.314 201.622C115.678 201.384 116.149 201.264 116.725 201.264C117.243 201.264 117.695 201.37 118.083 201.582C118.471 201.791 118.772 202.109 118.988 202.537C119.203 202.961 119.311 203.498 119.311 204.148V209H118.137V204.227C118.137 203.627 117.982 203.16 117.67 202.825C117.359 202.487 116.931 202.318 116.387 202.318C116.013 202.318 115.678 202.399 115.383 202.562C115.092 202.724 114.861 202.961 114.692 203.273C114.523 203.584 114.439 203.962 114.439 204.406ZM123.702 209.179C123.218 209.179 122.779 209.088 122.384 208.906C121.99 208.72 121.677 208.453 121.445 208.105C121.213 207.754 121.097 207.33 121.097 206.832C121.097 206.395 121.183 206.04 121.355 205.768C121.528 205.493 121.758 205.278 122.046 205.122C122.335 204.966 122.653 204.85 123.001 204.774C123.352 204.695 123.705 204.632 124.06 204.585C124.524 204.526 124.9 204.481 125.188 204.451C125.48 204.418 125.692 204.363 125.825 204.287C125.961 204.211 126.029 204.078 126.029 203.889V203.849C126.029 203.359 125.894 202.978 125.626 202.706C125.361 202.434 124.958 202.298 124.418 202.298C123.858 202.298 123.419 202.421 123.1 202.666C122.782 202.911 122.558 203.173 122.429 203.452L121.316 203.054C121.514 202.59 121.78 202.229 122.111 201.97C122.446 201.708 122.81 201.526 123.205 201.423C123.602 201.317 123.994 201.264 124.378 201.264C124.623 201.264 124.905 201.294 125.223 201.354C125.545 201.41 125.855 201.528 126.153 201.707C126.454 201.886 126.705 202.156 126.904 202.517C127.102 202.878 127.202 203.362 127.202 203.969V209H126.029V207.966H125.969C125.889 208.132 125.757 208.309 125.571 208.498C125.386 208.687 125.139 208.848 124.83 208.98C124.522 209.113 124.146 209.179 123.702 209.179ZM123.881 208.125C124.345 208.125 124.736 208.034 125.054 207.852C125.376 207.669 125.618 207.434 125.78 207.146C125.946 206.857 126.029 206.554 126.029 206.236V205.162C125.979 205.222 125.869 205.276 125.7 205.326C125.535 205.372 125.343 205.414 125.124 205.45C124.908 205.483 124.698 205.513 124.492 205.54C124.29 205.563 124.126 205.583 124 205.599C123.695 205.639 123.41 205.704 123.145 205.793C122.883 205.879 122.671 206.01 122.509 206.186C122.35 206.358 122.27 206.594 122.27 206.892C122.27 207.3 122.421 207.608 122.722 207.817C123.027 208.022 123.414 208.125 123.881 208.125ZM130.517 198.818V209H129.343V198.818H130.517ZM137.18 209H135.887L139.626 198.818H140.899L144.637 209H143.345L140.302 200.429H140.222L137.18 209ZM137.657 205.023H142.867V206.116H137.657V205.023ZM151.351 201.364L148.528 209H147.334L144.51 201.364H145.783L147.891 207.449H147.971L150.079 201.364H151.351ZM155.828 209.159C155.093 209.159 154.458 208.997 153.924 208.672C153.394 208.344 152.985 207.886 152.696 207.3C152.411 206.71 152.269 206.024 152.269 205.241C152.269 204.459 152.411 203.77 152.696 203.173C152.985 202.573 153.386 202.106 153.899 201.771C154.416 201.433 155.02 201.264 155.709 201.264C156.107 201.264 156.499 201.33 156.887 201.463C157.275 201.596 157.628 201.811 157.946 202.109C158.264 202.404 158.518 202.795 158.707 203.283C158.896 203.77 158.99 204.37 158.99 205.082V205.58H153.104V204.565H157.797C157.797 204.134 157.711 203.75 157.539 203.412C157.369 203.074 157.128 202.807 156.813 202.612C156.501 202.416 156.133 202.318 155.709 202.318C155.242 202.318 154.837 202.434 154.496 202.666C154.158 202.895 153.898 203.193 153.715 203.561C153.533 203.929 153.442 204.323 153.442 204.744V205.42C153.442 205.997 153.541 206.486 153.74 206.887C153.942 207.285 154.222 207.588 154.58 207.797C154.938 208.002 155.354 208.105 155.828 208.105C156.137 208.105 156.415 208.062 156.664 207.976C156.915 207.886 157.133 207.754 157.315 207.578C157.497 207.399 157.638 207.177 157.737 206.912L158.871 207.23C158.752 207.615 158.551 207.953 158.269 208.244C157.988 208.533 157.64 208.758 157.225 208.92C156.811 209.08 156.345 209.159 155.828 209.159ZM160.775 209V201.364H161.909V202.517H161.988C162.127 202.139 162.379 201.833 162.744 201.597C163.108 201.362 163.519 201.244 163.977 201.244C164.063 201.244 164.171 201.246 164.3 201.249C164.429 201.253 164.527 201.258 164.593 201.264V202.457C164.553 202.447 164.462 202.433 164.32 202.413C164.181 202.389 164.033 202.378 163.877 202.378C163.506 202.378 163.175 202.456 162.883 202.612C162.595 202.764 162.366 202.976 162.197 203.248C162.031 203.516 161.948 203.823 161.948 204.168V209H160.775ZM168.231 209.179C167.747 209.179 167.308 209.088 166.914 208.906C166.519 208.72 166.206 208.453 165.974 208.105C165.742 207.754 165.626 207.33 165.626 206.832C165.626 206.395 165.712 206.04 165.885 205.768C166.057 205.493 166.287 205.278 166.576 205.122C166.864 204.966 167.182 204.85 167.53 204.774C167.882 204.695 168.234 204.632 168.589 204.585C169.053 204.526 169.429 204.481 169.718 204.451C170.009 204.418 170.221 204.363 170.354 204.287C170.49 204.211 170.558 204.078 170.558 203.889V203.849C170.558 203.359 170.424 202.978 170.155 202.706C169.89 202.434 169.487 202.298 168.947 202.298C168.387 202.298 167.948 202.421 167.63 202.666C167.311 202.911 167.088 203.173 166.958 203.452L165.845 203.054C166.044 202.59 166.309 202.229 166.64 201.97C166.975 201.708 167.34 201.526 167.734 201.423C168.132 201.317 168.523 201.264 168.907 201.264C169.153 201.264 169.434 201.294 169.752 201.354C170.074 201.41 170.384 201.528 170.682 201.707C170.984 201.886 171.234 202.156 171.433 202.517C171.632 202.878 171.731 203.362 171.731 203.969V209H170.558V207.966H170.498C170.419 208.132 170.286 208.309 170.1 208.498C169.915 208.687 169.668 208.848 169.36 208.98C169.051 209.113 168.675 209.179 168.231 209.179ZM168.41 208.125C168.874 208.125 169.265 208.034 169.583 207.852C169.905 207.669 170.147 207.434 170.309 207.146C170.475 206.857 170.558 206.554 170.558 206.236V205.162C170.508 205.222 170.399 205.276 170.23 205.326C170.064 205.372 169.872 205.414 169.653 205.45C169.438 205.483 169.227 205.513 169.022 205.54C168.819 205.563 168.655 205.583 168.529 205.599C168.225 205.639 167.94 205.704 167.674 205.793C167.413 205.879 167.2 206.01 167.038 206.186C166.879 206.358 166.799 206.594 166.799 206.892C166.799 207.3 166.95 207.608 167.252 207.817C167.557 208.022 167.943 208.125 168.41 208.125ZM176.955 212.023C176.388 212.023 175.901 211.95 175.493 211.804C175.086 211.661 174.746 211.473 174.474 211.237C174.206 211.005 173.992 210.757 173.833 210.491L174.768 209.835C174.874 209.974 175.008 210.134 175.17 210.312C175.333 210.495 175.555 210.652 175.836 210.785C176.122 210.921 176.494 210.989 176.955 210.989C177.572 210.989 178.08 210.839 178.481 210.541C178.882 210.243 179.083 209.776 179.083 209.139V207.588H178.983C178.897 207.727 178.775 207.9 178.616 208.105C178.46 208.307 178.234 208.488 177.939 208.647C177.648 208.803 177.253 208.881 176.756 208.881C176.14 208.881 175.586 208.735 175.096 208.443C174.608 208.152 174.222 207.727 173.937 207.17C173.656 206.614 173.515 205.937 173.515 205.142C173.515 204.36 173.652 203.679 173.927 203.099C174.202 202.515 174.585 202.065 175.076 201.746C175.566 201.425 176.133 201.264 176.776 201.264C177.273 201.264 177.668 201.347 177.959 201.513C178.254 201.675 178.48 201.861 178.635 202.07C178.795 202.275 178.917 202.444 179.003 202.577H179.123V201.364H180.256V209.219C180.256 209.875 180.107 210.409 179.809 210.82C179.514 211.234 179.116 211.537 178.616 211.729C178.118 211.925 177.565 212.023 176.955 212.023ZM176.915 207.827C177.386 207.827 177.784 207.719 178.108 207.504C178.433 207.288 178.68 206.978 178.849 206.574C179.018 206.17 179.103 205.686 179.103 205.122C179.103 204.572 179.02 204.086 178.854 203.665C178.689 203.245 178.443 202.915 178.118 202.676C177.794 202.437 177.393 202.318 176.915 202.318C176.418 202.318 176.004 202.444 175.672 202.696C175.344 202.948 175.097 203.286 174.932 203.71C174.769 204.134 174.688 204.605 174.688 205.122C174.688 205.652 174.771 206.121 174.937 206.529C175.106 206.933 175.354 207.252 175.682 207.484C176.014 207.712 176.425 207.827 176.915 207.827ZM185.606 209.159C184.87 209.159 184.235 208.997 183.702 208.672C183.171 208.344 182.762 207.886 182.474 207.3C182.189 206.71 182.046 206.024 182.046 205.241C182.046 204.459 182.189 203.77 182.474 203.173C182.762 202.573 183.163 202.106 183.677 201.771C184.194 201.433 184.797 201.264 185.486 201.264C185.884 201.264 186.277 201.33 186.665 201.463C187.052 201.596 187.405 201.811 187.724 202.109C188.042 202.404 188.295 202.795 188.484 203.283C188.673 203.77 188.768 204.37 188.768 205.082V205.58H182.881V204.565H187.574C187.574 204.134 187.488 203.75 187.316 203.412C187.147 203.074 186.905 202.807 186.59 202.612C186.278 202.416 185.911 202.318 185.486 202.318C185.019 202.318 184.615 202.434 184.273 202.666C183.935 202.895 183.675 203.193 183.493 203.561C183.31 203.929 183.219 204.323 183.219 204.744V205.42C183.219 205.997 183.319 206.486 183.518 206.887C183.72 207.285 184 207.588 184.358 207.797C184.716 208.002 185.132 208.105 185.606 208.105C185.914 208.105 186.192 208.062 186.441 207.976C186.693 207.886 186.91 207.754 187.092 207.578C187.274 207.399 187.415 207.177 187.515 206.912L188.648 207.23C188.529 207.615 188.328 207.953 188.047 208.244C187.765 208.533 187.417 208.758 187.003 208.92C186.588 209.08 186.123 209.159 185.606 209.159Z" fill="black"/>
<path d="M79.233 141V130.818H82.6733C83.4688 130.818 84.1217 130.954 84.6321 131.226C85.1425 131.494 85.5204 131.864 85.7656 132.335C86.0109 132.805 86.1335 133.34 86.1335 133.94C86.1335 134.54 86.0109 135.072 85.7656 135.536C85.5204 136 85.1442 136.365 84.6371 136.63C84.13 136.892 83.482 137.023 82.6932 137.023H79.9091V135.909H82.6534C83.197 135.909 83.6345 135.83 83.9659 135.67C84.3007 135.511 84.5426 135.286 84.6918 134.994C84.8442 134.699 84.9205 134.348 84.9205 133.94C84.9205 133.533 84.8442 133.176 84.6918 132.871C84.5393 132.567 84.2957 132.331 83.9609 132.165C83.6262 131.996 83.1837 131.912 82.6335 131.912H80.4659V141H79.233ZM84.0256 136.426L86.5312 141H85.0994L82.6335 136.426H84.0256ZM91.1486 141.159C90.4128 141.159 89.7781 140.997 89.2445 140.672C88.7142 140.344 88.3049 139.886 88.0165 139.3C87.7315 138.71 87.589 138.024 87.589 137.241C87.589 136.459 87.7315 135.77 88.0165 135.173C88.3049 134.573 88.7059 134.106 89.2196 133.771C89.7367 133.433 90.3399 133.264 91.0293 133.264C91.427 133.264 91.8198 133.33 92.2076 133.463C92.5953 133.596 92.9483 133.811 93.2665 134.109C93.5847 134.404 93.8382 134.795 94.0272 135.283C94.2161 135.77 94.3105 136.37 94.3105 137.082V137.58H88.4242V136.565H93.1174C93.1174 136.134 93.0312 135.75 92.8588 135.412C92.6898 135.074 92.4479 134.807 92.133 134.612C91.8214 134.416 91.4535 134.318 91.0293 134.318C90.562 134.318 90.1576 134.434 89.8162 134.666C89.4782 134.895 89.218 135.193 89.0357 135.561C88.8534 135.929 88.7623 136.323 88.7623 136.744V137.42C88.7623 137.997 88.8617 138.486 89.0605 138.887C89.2627 139.285 89.5428 139.588 89.9007 139.797C90.2587 140.002 90.6747 140.105 91.1486 140.105C91.4569 140.105 91.7353 140.062 91.9838 139.976C92.2357 139.886 92.4528 139.754 92.6351 139.578C92.8174 139.399 92.9583 139.177 93.0577 138.912L94.1912 139.23C94.0719 139.615 93.8714 139.953 93.5897 140.244C93.3079 140.533 92.9599 140.758 92.5456 140.92C92.1313 141.08 91.6657 141.159 91.1486 141.159ZM99.1777 144.023C98.611 144.023 98.1238 143.95 97.7161 143.804C97.3084 143.661 96.9687 143.473 96.6969 143.237C96.4284 143.005 96.2147 142.757 96.0556 142.491L96.9902 141.835C97.0963 141.974 97.2305 142.134 97.3929 142.312C97.5553 142.495 97.7774 142.652 98.0591 142.785C98.3442 142.921 98.717 142.989 99.1777 142.989C99.7942 142.989 100.303 142.839 100.704 142.541C101.105 142.243 101.306 141.776 101.306 141.139V139.588H101.206C101.12 139.727 100.997 139.9 100.838 140.105C100.682 140.307 100.457 140.488 100.162 140.647C99.8704 140.803 99.476 140.881 98.9789 140.881C98.3624 140.881 97.8089 140.735 97.3184 140.443C96.8311 140.152 96.445 139.727 96.16 139.17C95.8783 138.614 95.7374 137.937 95.7374 137.142C95.7374 136.36 95.8749 135.679 96.15 135.099C96.4251 134.515 96.8079 134.065 97.2985 133.746C97.789 133.425 98.3558 133.264 98.9988 133.264C99.4959 133.264 99.8903 133.347 100.182 133.513C100.477 133.675 100.702 133.861 100.858 134.07C101.017 134.275 101.14 134.444 101.226 134.577H101.345V133.364H102.479V141.219C102.479 141.875 102.33 142.409 102.031 142.82C101.736 143.234 101.339 143.537 100.838 143.729C100.341 143.925 99.7876 144.023 99.1777 144.023ZM99.138 139.827C99.6086 139.827 100.006 139.719 100.331 139.504C100.656 139.288 100.903 138.978 101.072 138.574C101.241 138.17 101.325 137.686 101.325 137.122C101.325 136.572 101.243 136.086 101.077 135.665C100.911 135.245 100.666 134.915 100.341 134.676C100.016 134.437 99.6152 134.318 99.138 134.318C98.6408 134.318 98.2265 134.444 97.8951 134.696C97.5669 134.948 97.32 135.286 97.1543 135.71C96.9919 136.134 96.9107 136.605 96.9107 137.122C96.9107 137.652 96.9935 138.121 97.1593 138.529C97.3283 138.933 97.5769 139.252 97.905 139.484C98.2364 139.712 98.6474 139.827 99.138 139.827ZM104.627 141V133.364H105.8V141H104.627ZM105.223 132.091C104.994 132.091 104.797 132.013 104.632 131.857C104.469 131.701 104.388 131.514 104.388 131.295C104.388 131.077 104.469 130.889 104.632 130.734C104.797 130.578 104.994 130.5 105.223 130.5C105.452 130.5 105.647 130.578 105.81 130.734C105.976 130.889 106.058 131.077 106.058 131.295C106.058 131.514 105.976 131.701 105.81 131.857C105.647 132.013 105.452 132.091 105.223 132.091ZM111.051 141.159C110.362 141.159 109.757 140.995 109.237 140.667C108.719 140.339 108.315 139.88 108.023 139.29C107.735 138.7 107.591 138.01 107.591 137.222C107.591 136.426 107.735 135.732 108.023 135.138C108.315 134.545 108.719 134.085 109.237 133.756C109.757 133.428 110.362 133.264 111.051 133.264C111.741 133.264 112.344 133.428 112.861 133.756C113.381 134.085 113.786 134.545 114.074 135.138C114.366 135.732 114.511 136.426 114.511 137.222C114.511 138.01 114.366 138.7 114.074 139.29C113.786 139.88 113.381 140.339 112.861 140.667C112.344 140.995 111.741 141.159 111.051 141.159ZM111.051 140.105C111.575 140.105 112.006 139.971 112.344 139.702C112.682 139.434 112.932 139.081 113.094 138.643C113.257 138.206 113.338 137.732 113.338 137.222C113.338 136.711 113.257 136.236 113.094 135.795C112.932 135.354 112.682 134.998 112.344 134.726C112.006 134.454 111.575 134.318 111.051 134.318C110.527 134.318 110.097 134.454 109.759 134.726C109.42 134.998 109.17 135.354 109.008 135.795C108.845 136.236 108.764 136.711 108.764 137.222C108.764 137.732 108.845 138.206 109.008 138.643C109.17 139.081 109.42 139.434 109.759 139.702C110.097 139.971 110.527 140.105 111.051 140.105ZM117.476 136.406V141H116.302V133.364H117.436V134.557H117.535C117.714 134.169 117.986 133.857 118.351 133.622C118.715 133.384 119.186 133.264 119.763 133.264C120.28 133.264 120.732 133.37 121.12 133.582C121.508 133.791 121.809 134.109 122.025 134.537C122.24 134.961 122.348 135.498 122.348 136.148V141H121.175V136.227C121.175 135.627 121.019 135.16 120.707 134.825C120.396 134.487 119.968 134.318 119.425 134.318C119.05 134.318 118.715 134.399 118.42 134.562C118.129 134.724 117.898 134.961 117.729 135.273C117.56 135.584 117.476 135.962 117.476 136.406ZM126.739 141.179C126.255 141.179 125.816 141.088 125.422 140.906C125.027 140.72 124.714 140.453 124.482 140.105C124.25 139.754 124.134 139.33 124.134 138.832C124.134 138.395 124.22 138.04 124.392 137.768C124.565 137.493 124.795 137.278 125.083 137.122C125.372 136.966 125.69 136.85 126.038 136.774C126.389 136.695 126.742 136.632 127.097 136.585C127.561 136.526 127.937 136.481 128.225 136.451C128.517 136.418 128.729 136.363 128.862 136.287C128.998 136.211 129.066 136.078 129.066 135.889V135.849C129.066 135.359 128.931 134.978 128.663 134.706C128.398 134.434 127.995 134.298 127.455 134.298C126.895 134.298 126.456 134.421 126.137 134.666C125.819 134.911 125.596 135.173 125.466 135.452L124.353 135.054C124.551 134.59 124.817 134.229 125.148 133.97C125.483 133.708 125.847 133.526 126.242 133.423C126.64 133.317 127.031 133.264 127.415 133.264C127.66 133.264 127.942 133.294 128.26 133.354C128.582 133.41 128.892 133.528 129.19 133.707C129.492 133.886 129.742 134.156 129.941 134.517C130.14 134.878 130.239 135.362 130.239 135.969V141H129.066V139.966H129.006C128.926 140.132 128.794 140.309 128.608 140.498C128.423 140.687 128.176 140.848 127.868 140.98C127.559 141.113 127.183 141.179 126.739 141.179ZM126.918 140.125C127.382 140.125 127.773 140.034 128.091 139.852C128.413 139.669 128.655 139.434 128.817 139.146C128.983 138.857 129.066 138.554 129.066 138.236V137.162C129.016 137.222 128.907 137.276 128.738 137.326C128.572 137.372 128.38 137.414 128.161 137.45C127.945 137.483 127.735 137.513 127.529 137.54C127.327 137.563 127.163 137.583 127.037 137.599C126.732 137.639 126.447 137.704 126.182 137.793C125.92 137.879 125.708 138.01 125.546 138.186C125.387 138.358 125.307 138.594 125.307 138.892C125.307 139.3 125.458 139.608 125.76 139.817C126.065 140.022 126.451 140.125 126.918 140.125ZM133.554 130.818V141H132.381V130.818H133.554ZM140.217 141H138.924L142.663 130.818H143.936L147.674 141H146.382L143.339 132.429H143.26L140.217 141ZM140.694 137.023H145.904V138.116H140.694V137.023ZM154.388 133.364L151.565 141H150.371L147.548 133.364H148.82L150.928 139.449H151.008L153.116 133.364H154.388ZM158.865 141.159C158.13 141.159 157.495 140.997 156.961 140.672C156.431 140.344 156.022 139.886 155.733 139.3C155.448 138.71 155.306 138.024 155.306 137.241C155.306 136.459 155.448 135.77 155.733 135.173C156.022 134.573 156.423 134.106 156.936 133.771C157.453 133.433 158.057 133.264 158.746 133.264C159.144 133.264 159.537 133.33 159.924 133.463C160.312 133.596 160.665 133.811 160.983 134.109C161.301 134.404 161.555 134.795 161.744 135.283C161.933 135.77 162.027 136.37 162.027 137.082V137.58H156.141V136.565H160.834C160.834 136.134 160.748 135.75 160.576 135.412C160.407 135.074 160.165 134.807 159.85 134.612C159.538 134.416 159.17 134.318 158.746 134.318C158.279 134.318 157.874 134.434 157.533 134.666C157.195 134.895 156.935 135.193 156.752 135.561C156.57 135.929 156.479 136.323 156.479 136.744V137.42C156.479 137.997 156.578 138.486 156.777 138.887C156.98 139.285 157.26 139.588 157.618 139.797C157.975 140.002 158.391 140.105 158.865 140.105C159.174 140.105 159.452 140.062 159.701 139.976C159.953 139.886 160.17 139.754 160.352 139.578C160.534 139.399 160.675 139.177 160.775 138.912L161.908 139.23C161.789 139.615 161.588 139.953 161.306 140.244C161.025 140.533 160.677 140.758 160.262 140.92C159.848 141.08 159.382 141.159 158.865 141.159ZM163.812 141V133.364H164.946V134.517H165.025C165.164 134.139 165.416 133.833 165.781 133.597C166.145 133.362 166.556 133.244 167.014 133.244C167.1 133.244 167.208 133.246 167.337 133.249C167.466 133.253 167.564 133.258 167.63 133.264V134.457C167.591 134.447 167.499 134.433 167.357 134.413C167.218 134.389 167.07 134.378 166.914 134.378C166.543 134.378 166.212 134.456 165.92 134.612C165.632 134.764 165.403 134.976 165.234 135.248C165.068 135.516 164.985 135.823 164.985 136.168V141H163.812ZM171.268 141.179C170.784 141.179 170.345 141.088 169.951 140.906C169.556 140.72 169.243 140.453 169.011 140.105C168.779 139.754 168.663 139.33 168.663 138.832C168.663 138.395 168.749 138.04 168.922 137.768C169.094 137.493 169.324 137.278 169.613 137.122C169.901 136.966 170.219 136.85 170.567 136.774C170.919 136.695 171.272 136.632 171.626 136.585C172.09 136.526 172.466 136.481 172.755 136.451C173.046 136.418 173.259 136.363 173.391 136.287C173.527 136.211 173.595 136.078 173.595 135.889V135.849C173.595 135.359 173.461 134.978 173.192 134.706C172.927 134.434 172.524 134.298 171.984 134.298C171.424 134.298 170.985 134.421 170.667 134.666C170.349 134.911 170.125 135.173 169.996 135.452L168.882 135.054C169.081 134.59 169.346 134.229 169.677 133.97C170.012 133.708 170.377 133.526 170.771 133.423C171.169 133.317 171.56 133.264 171.944 133.264C172.19 133.264 172.471 133.294 172.79 133.354C173.111 133.41 173.421 133.528 173.719 133.707C174.021 133.886 174.271 134.156 174.47 134.517C174.669 134.878 174.768 135.362 174.768 135.969V141H173.595V139.966H173.535C173.456 140.132 173.323 140.309 173.138 140.498C172.952 140.687 172.705 140.848 172.397 140.98C172.089 141.113 171.712 141.179 171.268 141.179ZM171.447 140.125C171.911 140.125 172.302 140.034 172.621 139.852C172.942 139.669 173.184 139.434 173.346 139.146C173.512 138.857 173.595 138.554 173.595 138.236V137.162C173.545 137.222 173.436 137.276 173.267 137.326C173.101 137.372 172.909 137.414 172.69 137.45C172.475 137.483 172.264 137.513 172.059 137.54C171.857 137.563 171.693 137.583 171.567 137.599C171.262 137.639 170.977 137.704 170.711 137.793C170.45 137.879 170.238 138.01 170.075 138.186C169.916 138.358 169.836 138.594 169.836 138.892C169.836 139.3 169.987 139.608 170.289 139.817C170.594 140.022 170.98 140.125 171.447 140.125ZM179.992 144.023C179.425 144.023 178.938 143.95 178.531 143.804C178.123 143.661 177.783 143.473 177.511 143.237C177.243 143.005 177.029 142.757 176.87 142.491L177.805 141.835C177.911 141.974 178.045 142.134 178.207 142.312C178.37 142.495 178.592 142.652 178.874 142.785C179.159 142.921 179.531 142.989 179.992 142.989C180.609 142.989 181.117 142.839 181.518 142.541C181.92 142.243 182.12 141.776 182.12 141.139V139.588H182.021C181.934 139.727 181.812 139.9 181.653 140.105C181.497 140.307 181.272 140.488 180.977 140.647C180.685 140.803 180.29 140.881 179.793 140.881C179.177 140.881 178.623 140.735 178.133 140.443C177.646 140.152 177.259 139.727 176.974 139.17C176.693 138.614 176.552 137.937 176.552 137.142C176.552 136.36 176.689 135.679 176.964 135.099C177.24 134.515 177.622 134.065 178.113 133.746C178.603 133.425 179.17 133.264 179.813 133.264C180.31 133.264 180.705 133.347 180.996 133.513C181.291 133.675 181.517 133.861 181.673 134.07C181.832 134.275 181.954 134.444 182.04 134.577H182.16V133.364H183.293V141.219C183.293 141.875 183.144 142.409 182.846 142.82C182.551 143.234 182.153 143.537 181.653 143.729C181.156 143.925 180.602 144.023 179.992 144.023ZM179.952 139.827C180.423 139.827 180.821 139.719 181.146 139.504C181.47 139.288 181.717 138.978 181.886 138.574C182.055 138.17 182.14 137.686 182.14 137.122C182.14 136.572 182.057 136.086 181.891 135.665C181.726 135.245 181.48 134.915 181.156 134.676C180.831 134.437 180.43 134.318 179.952 134.318C179.455 134.318 179.041 134.444 178.71 134.696C178.381 134.948 178.134 135.286 177.969 135.71C177.806 136.134 177.725 136.605 177.725 137.122C177.725 137.652 177.808 138.121 177.974 138.529C178.143 138.933 178.391 139.252 178.719 139.484C179.051 139.712 179.462 139.827 179.952 139.827ZM188.643 141.159C187.907 141.159 187.272 140.997 186.739 140.672C186.208 140.344 185.799 139.886 185.511 139.3C185.226 138.71 185.083 138.024 185.083 137.241C185.083 136.459 185.226 135.77 185.511 135.173C185.799 134.573 186.2 134.106 186.714 133.771C187.231 133.433 187.834 133.264 188.523 133.264C188.921 133.264 189.314 133.33 189.702 133.463C190.089 133.596 190.442 133.811 190.761 134.109C191.079 134.404 191.332 134.795 191.521 135.283C191.71 135.77 191.805 136.37 191.805 137.082V137.58H185.918V136.565H190.612C190.612 136.134 190.525 135.75 190.353 135.412C190.184 135.074 189.942 134.807 189.627 134.612C189.316 134.416 188.948 134.318 188.523 134.318C188.056 134.318 187.652 134.434 187.31 134.666C186.972 134.895 186.712 135.193 186.53 135.561C186.348 135.929 186.256 136.323 186.256 136.744V137.42C186.256 137.997 186.356 138.486 186.555 138.887C186.757 139.285 187.037 139.588 187.395 139.797C187.753 140.002 188.169 140.105 188.643 140.105C188.951 140.105 189.229 140.062 189.478 139.976C189.73 139.886 189.947 139.754 190.129 139.578C190.312 139.399 190.452 139.177 190.552 138.912L191.685 139.23C191.566 139.615 191.366 139.953 191.084 140.244C190.802 140.533 190.454 140.758 190.04 140.92C189.625 141.08 189.16 141.159 188.643 141.159Z" fill="black"/>
</svg>
